<?xml version="1.0" encoding="UTF-8" standalone="no"?>
<!-- Created with Inkscape (http://www.inkscape.org/) -->

<svg
   version="1.1"
   id="svg1"
   width="78.666664"
   height="78.666664"
   viewBox="0 0 78.666664 78.666664"
   sodipodi:docname="logo 成品.eps"
   xmlns:inkscape="http://www.inkscape.org/namespaces/inkscape"
   xmlns:sodipodi="http://sodipodi.sourceforge.net/DTD/sodipodi-0.dtd"
   xmlns="http://www.w3.org/2000/svg"
   xmlns:svg="http://www.w3.org/2000/svg">
  <defs
     id="defs1" />
  <sodipodi:namedview
     id="namedview1"
     pagecolor="#ffffff"
     bordercolor="#000000"
     borderopacity="0.25"
     inkscape:showpageshadow="2"
     inkscape:pageopacity="0.0"
     inkscape:pagecheckerboard="0"
     inkscape:deskcolor="#d1d1d1">
    <inkscape:page
       x="0"
       y="0"
       inkscape:label="1"
       id="page1"
       width="78.666664"
       height="78.666664"
       margin="0"
       bleed="0" />
  </sodipodi:namedview>
  <g
     id="g1"
     inkscape:groupmode="layer"
     inkscape:label="1">
    <text
       id="text1"
       xml:space="preserve"
       transform="matrix(0.56349062,-1.2084106,1.2084106,0.56349062,7.67344,28.197867)"><tspan
         id="tspan1"
         style="font-variant:normal;font-weight:normal;font-size:5.99971px;font-family:Arial;writing-mode:lr-tb;fill:#231f20;fill-opacity:1;fill-rule:nonzero;stroke:none"
         x="0"
         y="0">E</tspan></text>
    <text
       id="text2"
       xml:space="preserve"
       transform="matrix(0.72618508,-1.1182276,1.1182276,0.72618508,10.17344,22.9984)"><tspan
         id="tspan2"
         style="font-variant:normal;font-weight:normal;font-size:5.99971px;font-family:Arial;writing-mode:lr-tb;fill:#231f20;fill-opacity:1;fill-rule:nonzero;stroke:none"
         x="0"
         y="0">Z</tspan></text>
    <text
       id="text3"
       xml:space="preserve"
       transform="matrix(0.92621077,-0.95912011,0.95912011,0.92621077,13.104693,18.5188)"><tspan
         id="tspan3"
         style="font-variant:normal;font-weight:normal;font-size:5.99971px;font-family:Arial;writing-mode:lr-tb;fill:#231f20;fill-opacity:1;fill-rule:nonzero;stroke:none"
         x="0"
         y="0">S</tspan></text>
    <text
       id="text4"
       xml:space="preserve"
       transform="matrix(1.092203,-0.76476822,0.76476822,1.092203,17.045333,14.278667)"><tspan
         id="tspan4"
         style="font-variant:normal;font-weight:normal;font-size:5.99971px;font-family:Arial;writing-mode:lr-tb;fill:#231f20;fill-opacity:1;fill-rule:nonzero;stroke:none"
         x="0"
         y="0">O</tspan></text>
    <text
       id="text5"
       xml:space="preserve"
       transform="matrix(1.1880086,-0.60532094,0.60532094,1.1880086,22.592133,10.5188)"><tspan
         id="tspan5"
         style="font-variant:normal;font-weight:normal;font-size:5.99971px;font-family:Arial;writing-mode:lr-tb;fill:#231f20;fill-opacity:1;fill-rule:nonzero;stroke:none"
         x="0"
         y="0">F</tspan></text>
    <text
       id="text6"
       xml:space="preserve"
       transform="matrix(1.2879011,-0.34509195,0.34509195,1.2879011,27.363067,8.0390667)"><tspan
         id="tspan6"
         style="font-variant:normal;font-weight:normal;font-size:5.99971px;font-family:Arial;writing-mode:lr-tb;fill:#231f20;fill-opacity:1;fill-rule:nonzero;stroke:none"
         x="0"
         y="0">T</tspan></text>
    <text
       id="text7"
       xml:space="preserve"
       transform="matrix(1.3300854,-0.09300867,0.09300867,1.3300854,34.088,6.3593333)"><tspan
         id="tspan7"
         style="font-variant:normal;font-weight:normal;font-size:5.99971px;font-family:Arial;writing-mode:lr-tb;fill:#231f20;fill-opacity:1;fill-rule:nonzero;stroke:none"
         x="0"
         y="0">S</tspan></text>
    <text
       id="text8"
       xml:space="preserve"
       transform="matrix(1.3300854,0.09300867,-0.09300867,1.3300854,39.8688,6.0390667)"><tspan
         id="tspan8"
         style="font-variant:normal;font-weight:normal;font-size:5.99971px;font-family:Arial;writing-mode:lr-tb;fill:#231f20;fill-opacity:1;fill-rule:nonzero;stroke:none"
         x="0"
         y="0">T</tspan></text>
    <text
       id="text9"
       xml:space="preserve"
       transform="matrix(1.2879011,0.34509195,-0.34509195,1.2879011,45.199467,6.4390667)"><tspan
         id="tspan9"
         style="font-variant:normal;font-weight:normal;font-size:5.99971px;font-family:Arial;writing-mode:lr-tb;fill:#231f20;fill-opacity:1;fill-rule:nonzero;stroke:none"
         x="0"
         y="0">U</tspan></text>
    <text
       id="text10"
       xml:space="preserve"
       transform="matrix(1.1880086,0.60532094,-0.60532094,1.1880086,51.260933,8.0390667)"><tspan
         id="tspan10"
         style="font-variant:normal;font-weight:normal;font-size:5.99971px;font-family:Arial;writing-mode:lr-tb;fill:#231f20;fill-opacity:1;fill-rule:nonzero;stroke:none"
         x="0"
         y="0">D</tspan></text>
    <text
       id="text11"
       xml:space="preserve"
       transform="matrix(1.1307309,0.70655882,-0.70655882,1.1307309,56.762533,10.998933)"><tspan
         id="tspan11"
         style="font-variant:normal;font-weight:normal;font-size:5.99971px;font-family:Arial;writing-mode:lr-tb;fill:#231f20;fill-opacity:1;fill-rule:nonzero;stroke:none"
         x="0"
         y="0">I</tspan></text>
    <text
       id="text12"
       xml:space="preserve"
       transform="matrix(1.0213921,0.85705074,-0.85705074,1.0213921,59.0292,12.3588)"><tspan
         id="tspan12"
         style="font-variant:normal;font-weight:normal;font-size:5.99971px;font-family:Arial;writing-mode:lr-tb;fill:#231f20;fill-opacity:1;fill-rule:nonzero;stroke:none"
         x="0"
         y="0">O</tspan></text>
    <text
       id="text13"
       xml:space="preserve"
       transform="matrix(0.83909351,1.0361949,-1.0361949,0.83909351,65.075067,18.1984)"><tspan
         id="tspan13"
         style="font-variant:normal;font-weight:normal;font-size:5.99971px;font-family:Arial;writing-mode:lr-tb;fill:#231f20;fill-opacity:1;fill-rule:nonzero;stroke:none"
         x="0"
         y="0">I</tspan></text>
    <text
       id="text14"
       xml:space="preserve"
       transform="matrix(0.6666669,1.1547004,-1.1547004,0.6666669,66.782267,20.278133)"><tspan
         id="tspan14"
         style="font-variant:normal;font-weight:normal;font-size:5.99971px;font-family:Arial;writing-mode:lr-tb;fill:#231f20;fill-opacity:1;fill-rule:nonzero;stroke:none"
         x="0"
         y="0">N</tspan></text>
    <text
       id="text15"
       xml:space="preserve"
       transform="matrix(0.43409051,1.2606916,-1.2606916,0.43409051,69.883333,25.718267)"><tspan
         id="tspan15"
         style="font-variant:normal;font-weight:normal;font-size:5.99971px;font-family:Arial;writing-mode:lr-tb;fill:#231f20;fill-opacity:1;fill-rule:nonzero;stroke:none"
         x="0"
         y="0">C</tspan></text>
    <text
       id="text16"
       xml:space="preserve"
       transform="matrix(0.29993469,1.2991601,-1.2991601,0.29993469,71.784933,31.638)"><tspan
         id="tspan16"
         style="font-variant:normal;font-weight:normal;font-size:5.99971px;font-family:Arial;writing-mode:lr-tb;fill:#231f20;fill-opacity:1;fill-rule:nonzero;stroke:none"
         x="0"
         y="0">.</tspan></text>
    <text
       id="text17"
       xml:space="preserve"
       transform="matrix(-0.09300867,1.3300854,-1.3300854,-0.09300867,72.8536,38.197333)"><tspan
         id="tspan17"
         style="font-variant:normal;font-weight:normal;font-size:5.99971px;font-family:Arial;writing-mode:lr-tb;fill:#231f20;fill-opacity:1;fill-rule:nonzero;stroke:none"
         x="0"
         y="0">W</tspan></text>
    <text
       id="text18"
       xml:space="preserve"
       transform="matrix(-0.41202287,1.2680753,-1.2680753,-0.41202287,72.288533,46.196933)"><tspan
         id="tspan18"
         style="font-variant:normal;font-weight:normal;font-size:5.99971px;font-family:Arial;writing-mode:lr-tb;fill:#231f20;fill-opacity:1;fill-rule:nonzero;stroke:none"
         x="0"
         y="0">W</tspan></text>
    <text
       id="text19"
       xml:space="preserve"
       transform="matrix(-0.70655882,1.1307309,-1.1307309,-0.70655882,69.724,53.877067)"><tspan
         id="tspan19"
         style="font-variant:normal;font-weight:normal;font-size:5.99971px;font-family:Arial;writing-mode:lr-tb;fill:#231f20;fill-opacity:1;fill-rule:nonzero;stroke:none"
         x="0"
         y="0">W</tspan></text>
    <text
       id="text20"
       xml:space="preserve"
       transform="matrix(-0.85705074,1.0213921,-1.0213921,-0.85705074,65.597867,60.116667)"><tspan
         id="tspan20"
         style="font-variant:normal;font-weight:normal;font-size:5.99971px;font-family:Arial;writing-mode:lr-tb;fill:#231f20;fill-opacity:1;fill-rule:nonzero;stroke:none"
         x="0"
         y="0">.</tspan></text>
    <text
       id="text21"
       xml:space="preserve"
       transform="matrix(-0.95912011,0.92621077,-0.92621077,-0.95912011,63.865067,62.1964)"><tspan
         id="tspan21"
         style="font-variant:normal;font-weight:normal;font-size:5.99971px;font-family:Arial;writing-mode:lr-tb;fill:#231f20;fill-opacity:1;fill-rule:nonzero;stroke:none"
         x="0"
         y="0">E</tspan></text>
    <text
       id="text22"
       xml:space="preserve"
       transform="matrix(-1.1182276,0.72618508,-0.72618508,-1.1182276,59.566133,66.116147)"><tspan
         id="tspan22"
         style="font-variant:normal;font-weight:normal;font-size:5.99971px;font-family:Arial;writing-mode:lr-tb;fill:#231f20;fill-opacity:1;fill-rule:nonzero;stroke:none"
         x="0"
         y="0">Z</tspan></text>
    <text
       id="text23"
       xml:space="preserve"
       transform="matrix(-1.2084106,0.56349062,-0.56349062,-1.2084106,55.057333,68.995827)"><tspan
         id="tspan23"
         style="font-variant:normal;font-weight:normal;font-size:5.99971px;font-family:Arial;writing-mode:lr-tb;fill:#231f20;fill-opacity:1;fill-rule:nonzero;stroke:none"
         x="0"
         y="0">S</tspan></text>
    <text
       id="text24"
       xml:space="preserve"
       transform="matrix(-1.2991601,0.29993469,-0.29993469,-1.2991601,49.797867,71.316147)"><tspan
         id="tspan24"
         style="font-variant:normal;font-weight:normal;font-size:5.99971px;font-family:Arial;writing-mode:lr-tb;fill:#231f20;fill-opacity:1;fill-rule:nonzero;stroke:none"
         x="0"
         y="0">O</tspan></text>
    <text
       id="text25"
       xml:space="preserve"
       transform="matrix(-1.3325211,0.04653266,-0.04653266,-1.3325211,43.2656,72.755733)"><tspan
         id="tspan25"
         style="font-variant:normal;font-weight:normal;font-size:5.99971px;font-family:Arial;writing-mode:lr-tb;fill:#231f20;fill-opacity:1;fill-rule:nonzero;stroke:none"
         x="0"
         y="0">F</tspan></text>
    <text
       id="text26"
       xml:space="preserve"
       transform="matrix(-1.3203574,-0.18556402,0.18556402,-1.3203574,37.957333,72.99584)"><tspan
         id="tspan26"
         style="font-variant:normal;font-weight:normal;font-size:5.99971px;font-family:Arial;writing-mode:lr-tb;fill:#231f20;fill-opacity:1;fill-rule:nonzero;stroke:none"
         x="0"
         y="0">T</tspan></text>
    <text
       id="text27"
       xml:space="preserve"
       transform="matrix(-1.2816824,-0.36751593,0.36751593,-1.2816824,32.6484,72.355733)"><tspan
         id="tspan27"
         style="font-variant:normal;font-weight:normal;font-size:5.99971px;font-family:Arial;writing-mode:lr-tb;fill:#231f20;fill-opacity:1;fill-rule:nonzero;stroke:none"
         x="0"
         y="0">4</tspan></text>
    <text
       id="text28"
       xml:space="preserve"
       transform="matrix(-1.2084106,-0.56349062,0.56349062,-1.2084106,27.942667,70.995827)"><tspan
         id="tspan28"
         style="font-variant:normal;font-weight:normal;font-size:5.99971px;font-family:Arial;writing-mode:lr-tb;fill:#231f20;fill-opacity:1;fill-rule:nonzero;stroke:none"
         x="0"
         y="0">U</tspan></text>
    <text
       id="text29"
       xml:space="preserve"
       transform="matrix(-1.1182276,-0.72618508,0.72618508,-1.1182276,22.324533,68.27604)"><tspan
         id="tspan29"
         style="font-variant:normal;font-weight:normal;font-size:5.99971px;font-family:Arial;writing-mode:lr-tb;fill:#231f20;fill-opacity:1;fill-rule:nonzero;stroke:none"
         x="0"
         y="0">.</tspan></text>
    <text
       id="text30"
       xml:space="preserve"
       transform="matrix(-1.0062797,-0.87474507,0.87474507,-1.0062797,19.952133,66.916147)"><tspan
         id="tspan30"
         style="font-variant:normal;font-weight:normal;font-size:5.99971px;font-family:Arial;writing-mode:lr-tb;fill:#231f20;fill-opacity:1;fill-rule:nonzero;stroke:none"
         x="0"
         y="0">C</tspan></text>
    <text
       id="text31"
       xml:space="preserve"
       transform="matrix(-0.82088141,-1.0506814,1.0506814,-0.82088141,15.214,62.916133)"><tspan
         id="tspan31"
         style="font-variant:normal;font-weight:normal;font-size:5.99971px;font-family:Arial;writing-mode:lr-tb;fill:#231f20;fill-opacity:1;fill-rule:nonzero;stroke:none"
         x="0"
         y="0">O</tspan></text>
    <text
       id="text32"
       xml:space="preserve"
       transform="matrix(-0.60532094,-1.1880086,1.1880086,-0.60532094,11.081253,57.636933)"><tspan
         id="tspan32"
         style="font-variant:normal;font-weight:normal;font-size:5.99971px;font-family:Arial;writing-mode:lr-tb;fill:#231f20;fill-opacity:1;fill-rule:nonzero;stroke:none"
         x="0"
         y="0">M</tspan></text>
    <text
       id="text33"
       xml:space="preserve"
       transform="matrix(-0.41202287,-1.2680753,1.2680753,-0.41202287,8.0302133,51.236933)"><tspan
         id="tspan33"
         style="font-variant:normal;font-weight:normal;font-size:5.99971px;font-family:Arial;writing-mode:lr-tb;fill:#231f20;fill-opacity:1;fill-rule:nonzero;stroke:none"
         x="0"
         y="0">.</tspan></text>
    <text
       id="text34"
       xml:space="preserve"
       transform="matrix(-0.29993469,-1.2991601,1.2991601,-0.29993469,7.17708,48.7568)"><tspan
         id="tspan34"
         style="font-variant:normal;font-weight:normal;font-size:5.99971px;font-family:Arial;writing-mode:lr-tb;fill:#231f20;fill-opacity:1;fill-rule:nonzero;stroke:none"
         x="0"
         y="0">T</tspan></text>
    <text
       id="text35"
       xml:space="preserve"
       transform="matrix(-0.02326986,-1.3331303,1.3331303,-0.02326986,5.94844,43.4776)"><tspan
         id="tspan35"
         style="font-variant:normal;font-weight:normal;font-size:5.99971px;font-family:Arial;writing-mode:lr-tb;fill:#231f20;fill-opacity:1;fill-rule:nonzero;stroke:none"
         x="0"
         y="0">W</tspan></text>
    <path
       id="path35"
       d="m 480.566,419.82 -1.519,0.914 -1.516,0.911 -1.519,0.91 -1.52,0.91 -1.219,0.609 -1.519,0.91 -0.91,0.914 -1.215,0.911 -3.344,2.734 -4.558,3.344 -5.164,3.648 -5.774,3.949 -6.078,4.254 -6.379,3.95 -6.992,4.253 -6.684,3.95 -6.683,3.648 -6.383,3.34 -6.074,2.734 -5.473,2.43 -4.859,1.52 -3.954,0.914 h -3.039 l -1.82,-1.215 -0.609,-0.61 -1.215,-0.609 -1.52,-0.91 -1.519,-0.91 -1.82,-0.91 -1.825,-1.215 -1.824,-0.914 -1.215,-0.911 3.039,-0.609 3.344,-0.605 3.34,-0.914 3.644,-1.215 3.954,-1.52 3.949,-1.215 3.949,-1.824 3.953,-1.516 3.949,-1.824 3.95,-1.824 3.648,-1.824 3.645,-1.824 3.339,-1.52 3.348,-1.82 2.73,-1.824 2.434,-1.52 1.52,-0.91 1.82,-0.91 2.434,-1.219 3.035,-1.52 3.039,-1.214 3.648,-1.52 3.344,-1.519 3.945,-1.52 3.649,-1.52 3.949,-1.519 3.648,-1.52 3.645,-1.214 3.344,-1.215 3.343,-1.215 2.735,-0.914 2.429,-0.606"
       style="fill:#231f20;fill-opacity:1;fill-rule:evenodd;stroke:none"
       transform="matrix(0.13333333,0,0,-0.13333333,0,78.666667)" />
    <path
       id="path36"
       d="m 140.246,363.305 2.43,3.34 4.254,3.039 5.773,2.734 7.293,2.43 8.508,1.824 9.422,1.824 10.023,1.52 10.637,1.519 10.937,1.215 10.637,1.215 10.637,1.215 10.328,0.91 9.422,1.219 8.508,1.519 7.289,1.52 6.078,1.519 3.953,1.52 4.254,2.125 4.863,2.429 4.86,2.739 4.863,3.34 5.465,3.343 5.168,3.645 5.468,3.953 5.168,3.945 5.469,3.953 5.164,4.254 5.168,3.95 4.863,4.253 4.86,3.95 4.254,3.648 4.254,3.645 -4.864,-3.039 -5.164,-3.34 -5.164,-3.039 -5.472,-3.344 -5.465,-3.035 -5.473,-3.039 -5.469,-3.039 -5.468,-2.739 -5.168,-2.73 -5.469,-2.735 -5.164,-2.128 -4.863,-2.129 -4.86,-1.821 -4.258,-1.519 -4.254,-1.219 -3.949,-0.906 -6.683,-0.914 -8.207,-0.606 -9.723,-0.308 h -10.332 -11.242 l -11.848,0.308 h -11.852 l -11.851,0.301 h -11.848 l -11.242,-0.301 -10.332,-0.914 -9.723,-0.914 -8.203,-1.519 -6.687,-2.125 -5.168,-2.735 -3.035,-3.343 -1.52,-4.559 -0.305,-6.078 0.606,-7.289 1.519,-8.508 2.129,-9.117 3.039,-10.028 3.645,-10.332 3.949,-10.328 4.559,-10.636 5.168,-10.028 5.164,-10.027 5.469,-8.809 5.773,-8.511 5.773,-6.989 5.774,-5.773 5.773,-4.254 1.52,-0.91 1.519,-0.61 1.821,-0.605 1.824,-0.609 1.824,-0.61 2.129,-0.605 2.125,-0.61 2.434,-0.605 -5.168,5.164 -5.469,6.078 -5.164,6.684 -5.168,6.988 -4.863,7.598 -4.86,7.597 -4.558,7.899 -4.254,8.203 -3.649,7.902 -3.34,7.598 -2.734,7.289 -2.43,6.687 -1.519,6.379 -0.914,5.469 v 4.863 l 0.609,3.649"
       style="fill:#231f20;fill-opacity:1;fill-rule:evenodd;stroke:none"
       transform="matrix(0.13333333,0,0,-0.13333333,0,78.666667)" />
    <path
       id="path37"
       d="m 517.445,395.582 -1.691,1.688 -1.973,1.691 -2.25,1.687 -2.254,1.407 -2.254,1.691 -2.812,1.41 -2.535,1.407 -2.817,1.406 -0.281,-4.504 -2.254,-5.629 -4.504,-6.758 -5.91,-7.601 -7.324,-8.168 -8.445,-8.727 -9.293,-9.012 -9.852,-9.293 -10.422,-9.293 -10.133,-8.726 -9.855,-8.449 -9.574,-7.883 -8.727,-7.321 -7.605,-5.91 -6.477,-5.07 -4.785,-3.66 -1.691,-1.125 -1.969,-1.125 -1.973,-1.129 -2.531,-1.125 -2.535,-1.125 -3.098,-1.41 -3.098,-1.125 -3.378,-1.129 -3.379,-1.406 -3.661,-1.129 -3.941,-1.407 -3.941,-1.125 -4.227,-1.406 -4.223,-1.125 -4.503,-1.41 -4.504,-1.125 3.941,0.559 3.66,0.847 3.942,0.563 3.379,0.844 3.66,0.562 3.379,0.844 3.097,0.566 3.098,0.844 2.816,0.844 2.813,0.566 2.535,0.844 2.535,0.844 1.973,0.843 1.969,0.563 1.972,0.844 1.406,0.847 6.196,3.379 8.164,4.785 9.855,5.914 10.981,6.758 12.39,7.602 12.668,8.164 12.953,8.73 12.954,9.008 12.386,8.731 11.547,9.011 10.418,8.446 8.727,7.882 6.476,7.04 4.504,6.476 1.692,5.352 -1.407,3.941"
       style="fill:#231f20;fill-opacity:1;fill-rule:evenodd;stroke:none"
       transform="matrix(0.13333333,0,0,-0.13333333,0,78.666667)" />
    <path
       id="path38"
       d="m 193.727,257.258 2.125,-1.824 2.734,-2.129 3.039,-2.43 3.645,-2.43 3.343,-2.429 3.039,-2.129 2.735,-1.824 1.824,-0.911 3.949,-1.214 4.559,-0.915 5.164,-0.3 5.773,0.3 6.078,0.61 6.684,0.91 7.293,1.219 7.598,1.82 7.902,1.824 7.898,2.129 8.508,2.125 8.508,2.434 8.508,2.426 8.812,2.433 8.508,2.43 8.813,2.433 -8.508,-1.218 -8.813,-1.215 -9.117,-1.215 -9.113,-0.91 -9.422,-0.914 -9.418,-0.606 -9.422,-0.609 -9.418,-0.609 -9.418,-0.301 h -8.812 -8.817 l -8.203,0.301 -7.898,0.304 -7.598,0.61 -6.684,0.91 -6.378,0.914"
       style="fill:#231f20;fill-opacity:1;fill-rule:evenodd;stroke:none"
       transform="matrix(0.13333333,0,0,-0.13333333,0,78.666667)" />
    <path
       id="path39"
       d="m 170.234,340.832 9.079,-14.855 29.214,9.812 -10.316,11.891 -27.977,-6.848"
       style="fill:#231f20;fill-opacity:1;fill-rule:evenodd;stroke:none"
       transform="matrix(0.13333333,0,0,-0.13333333,0,78.666667)" />
    <path
       id="path40"
       d="m 215.414,354.73 9.481,-14.808 28.757,10.16 -10.265,11.492 -27.973,-6.844"
       style="fill:#231f20;fill-opacity:1;fill-rule:evenodd;stroke:none"
       transform="matrix(0.13333333,0,0,-0.13333333,0,78.666667)" />
    <path
       id="path41"
       d="m 261.516,368.938 8.808,-14.856 28.352,9.813 -10.406,11.839 -26.754,-6.796"
       style="fill:#231f20;fill-opacity:1;fill-rule:evenodd;stroke:none"
       transform="matrix(0.13333333,0,0,-0.13333333,0,78.666667)" />
    <path
       id="path42"
       d="m 195.746,311.676 9.535,-15.196 28.754,10.157 -10.262,11.492 -28.027,-6.453"
       style="fill:#231f20;fill-opacity:1;fill-rule:evenodd;stroke:none"
       transform="matrix(0.13333333,0,0,-0.13333333,0,78.666667)" />
    <path
       id="path43"
       d="m 240.066,325.57 9.254,-15.195 28.297,10.207 -10.351,11.441 -27.2,-6.453"
       style="fill:#231f20;fill-opacity:1;fill-rule:evenodd;stroke:none"
       transform="matrix(0.13333333,0,0,-0.13333333,0,78.666667)" />
    <path
       id="path44"
       d="m 286.27,339.785 8.863,-15.25 28.297,10.207 -10.352,11.442 -26.808,-6.399"
       style="fill:#231f20;fill-opacity:1;fill-rule:evenodd;stroke:none"
       transform="matrix(0.13333333,0,0,-0.13333333,0,78.666667)" />
    <path
       id="path45"
       d="m 307.836,375.137 12.539,-11.676 21.801,17.684 -12.723,7.812 -21.617,-13.82"
       style="fill:#231f20;fill-opacity:1;fill-rule:evenodd;stroke:none"
       transform="matrix(0.13333333,0,0,-0.13333333,0,78.666667)" />
    <path
       id="path46"
       d="m 342.297,401.172 12.539,-11.672 22.184,17.699 -12.743,8.196 -21.98,-14.223"
       style="fill:#231f20;fill-opacity:1;fill-rule:evenodd;stroke:none"
       transform="matrix(0.13333333,0,0,-0.13333333,0,78.666667)" />
    <path
       id="path47"
       d="m 379.043,427.707 12.539,-11.672 22.164,18.082 -12.34,7.836 -22.363,-14.246"
       style="fill:#231f20;fill-opacity:1;fill-rule:evenodd;stroke:none"
       transform="matrix(0.13333333,0,0,-0.13333333,0,78.666667)" />
    <path
       id="path48"
       d="m 330.141,350.781 12.535,-11.676 22.187,17.7 -12.359,8.218 -22.363,-14.242"
       style="fill:#231f20;fill-opacity:1;fill-rule:evenodd;stroke:none"
       transform="matrix(0.13333333,0,0,-0.13333333,0,78.666667)" />
    <path
       id="path49"
       d="m 365.367,376.852 12.539,-11.672 22.168,18.086 -12.726,7.812 -21.981,-14.226"
       style="fill:#231f20;fill-opacity:1;fill-rule:evenodd;stroke:none"
       transform="matrix(0.13333333,0,0,-0.13333333,0,78.666667)" />
    <path
       id="path50"
       d="m 402.094,403.773 12.539,-11.671 22.183,17.703 -12.742,8.195 -21.98,-14.227"
       style="fill:#231f20;fill-opacity:1;fill-rule:evenodd;stroke:none"
       transform="matrix(0.13333333,0,0,-0.13333333,0,78.666667)" />
    <path
       id="path51"
       d="m 221.195,278.918 11.598,-10.387 1.555,0.403 4.031,1.168 6.215,1.601 8.375,2.348 9.929,2.754 11.485,3.152 12.094,3.5 12.722,3.539 13.004,4.18 13.02,3.867 12.371,4.148 11.746,4.11 10.805,4.062 8.933,3.637 7.367,3.559 5.184,3.121 4.523,3.715 5.43,4.394 5.984,5.684 6.914,6.054 7.196,6.696 7.172,7.011 7.492,7.028 7.488,7.027 7.176,7.012 6.894,6.367 5.973,5.996 5.692,5.356 4.484,4.343 3.285,3.332 2.078,2.317 0.906,0.679 -0.906,-0.679 -2.726,-2.039 -4.223,-3.383 -5.43,-4.395 -6.648,-5.09 -7.246,-5.753 -8.168,-6.125 -8.469,-6.45 -8.777,-6.468 -8.782,-6.469 -8.8,-6.156 -8.203,-5.493 -7.594,-5.144 -6.703,-4.149 -5.496,-3.14 -4.625,-1.828 -4.957,-1.532 -7.122,-2.285 -8.972,-3.011 -10.52,-3.414 -11.433,-4.094 -12.375,-4.149 -12.688,-4.164 -12.687,-4.164 -12.672,-4.48 -12.078,-3.813 -11.133,-3.761 -9.582,-3.368 -8.36,-2.664 -6.179,-2.23 -4.012,-1.481 -1.555,-0.402"
       style="fill:#231f20;fill-opacity:1;fill-rule:evenodd;stroke:none"
       transform="matrix(0.13333333,0,0,-0.13333333,0,78.666667)" />
    <path
       id="path52"
       d="m 126.617,109.699 -11.969,11.918 c 3.504,-0.156 6.149,-1.015 9.782,-1.121 l 10.843,0.418 11.145,1.035 8.855,2.114 5.567,2.367 2.203,3.3 -0.348,3.418 -2.605,4.157 -4.445,4.484 -6.297,4.813 -7.039,4.945 -8.176,5.488 -8.215,5.828 -8.215,5.828 -7.512,6.039 -6.773,5.907 -5.7305,6.39 -3.918,6.407 -1.7382,6.351 -0.2188,5.746 0.6523,4.246 1.5,3.09 2.3086,2.274 3.1172,1.457 3.9294,0.644 4.7,0.172 5.472,-0.305 6.582,-0.5 7.356,-0.976 8.472,-1.176 8.797,-0.894 10.211,-0.477 10.578,-0.543 11.621,-0.055 12.621,0.77 10.743,1.441 6.601,2.852 3.242,3.785 0.286,4.316 -2.704,5.18 -4.925,5.574 -18.84,17.703 -10.153,11.106 c 3.622,-1.547 7.758,-3.324 12.454,-5.383 l 4.707,0.008 7.906,-6.285 6.16,-3.446 6.191,-3.793 9.731,-6.429 8.316,-6.856 6.508,-6.863 4.66,-6.539 1.664,-5.664 -1.324,-4.801 -5.09,-3.457 -9.597,-1.984 -12.625,-0.77 -11.618,0.059 -10.578,0.539 -10.211,0.48 -8.8,0.895 -8.465,1.176 -7.36,0.972 -6.582,0.504 -5.476,0.301 -4.699,-0.168 -3.926,-0.641 -3.113,-1.461 -2.313,-2.273 -1.5,-3.09 -0.652,-4.246 0.218,-5.746 1.739,-6.356 3.48,-5.652 5.324,-5.984 6.371,-5.5 7.438,-5.352 7.773,-5.082 7.782,-5.078 7.367,-4.668 7.004,-4.609 5.89,-4.403 4.821,-4.554 2.597,-4.153 0.789,-4.168 -1.765,-4.054 -4.649,-4.203 -7.574,-4.024 -4.933,-1.469 -6.407,-1.211 -7.183,-0.73 -7.922,-0.602 -8.36,0.145 -7.996,0.082 -7.289,0.289 -6.246,0.781"
       style="fill:#231f20;fill-opacity:1;fill-rule:evenodd;stroke:none"
       transform="matrix(0.13333333,0,0,-0.13333333,0,78.666667)" />
    <path
       id="path53"
       d="m 301.129,304.199 c 0.008,1.16 -1.356,21.254 14.629,5.102 8.164,-15.309 22.789,-61.227 22.789,-61.227 l -16.328,-7.824 -21.09,63.949"
       style="fill:#ffffff;fill-opacity:1;fill-rule:evenodd;stroke:none"
       transform="matrix(0.13333333,0,0,-0.13333333,0,78.666667)" />
    <path
       id="path54"
       d="m 410.652,153.727 -52.922,59.648 c -7.164,16.957 -22.164,65.34 -35.035,96.117 -8.058,19.27 -39.929,17.836 -23.429,-21.48 l 21.027,-61.391"
       style="fill:none;stroke:#231f20;stroke-width:15.0009;stroke-linecap:round;stroke-linejoin:round;stroke-miterlimit:2.6131;stroke-dasharray:none;stroke-opacity:1"
       transform="matrix(0.13333333,0,0,-0.13333333,0,78.666667)" />
    <path
       id="path55"
       d="m 319.727,229.629 11.425,-60.16 18.93,-34.512"
       style="fill:none;stroke:#231f20;stroke-width:15.0009;stroke-linecap:round;stroke-linejoin:round;stroke-miterlimit:2.6131;stroke-dasharray:none;stroke-opacity:1"
       transform="matrix(0.13333333,0,0,-0.13333333,0,78.666667)" />
    <path
       id="path56"
       d="m 280.609,171.789 5.524,-29.094 15.832,-29.086"
       style="fill:none;stroke:#231f20;stroke-width:15.0009;stroke-linecap:round;stroke-linejoin:round;stroke-miterlimit:2.6131;stroke-dasharray:none;stroke-opacity:1"
       transform="matrix(0.13333333,0,0,-0.13333333,0,78.666667)" />
    <path
       id="path57"
       d="m 454.242,131.301 -13.082,58.465 c -2.07,9.257 -9.023,41.382 -39.219,61.566 -26.878,17.965 -30.007,-6.516 -20.55,-21.988 17.98,-29.41 12.722,-57.188 11.707,-51.606"
       style="fill:none;stroke:#231f20;stroke-width:15.0009;stroke-linecap:round;stroke-linejoin:round;stroke-miterlimit:2.6131;stroke-dasharray:none;stroke-opacity:1"
       transform="matrix(0.13333333,0,0,-0.13333333,0,78.666667)" />
    <path
       id="path58"
       d="m 299.578,205.691 8.848,-49.179 17.121,-32.485"
       style="fill:none;stroke:#231f20;stroke-width:15.0009;stroke-linecap:round;stroke-linejoin:round;stroke-miterlimit:2.6131;stroke-dasharray:none;stroke-opacity:1"
       transform="matrix(0.13333333,0,0,-0.13333333,0,78.666667)" />
  </g>
</svg>
